{"title":"Sarbjit (2016) 720p Blu-ray x264 AAC 5.1 Hindi ESub -DDR","uid":15539058,"size":1150563041,"categoryP":"video","categoryS":"hd___movies","magnet":"?xt=urn:btih:ce9f623881d619e9bf2f27a70d36f00541e2ac0a&amp;dn=Sarbjit+%282016%29+720p+Blu-ray+x264+AAC+5.1+Hindi+ESub+-DDR&amp;tr=udp%3A%2F%2Ftracker.leechers-paradise.org%3A6969&amp;tr=udp%3A%2F%2Fzer0day.ch%3A1337&amp;tr=udp%3A%2F%2Fopen.demonii.com%3A1337&amp;tr=udp%3A%2F%2Ftracker.coppersurfer.tk%3A6969&amp;tr=udp%3A%2F%2Fexodus.desync.com%3A6969","seeders":17,"leechers":8,"uploader":"SaM","files":3,"time":1470909339,"description":"\n** SARBJIT **\r\n\r\n** 2016 **\r\n** Tiny 720p / Blu-Ray / x264 / AAC 5.1 **\r\n\r\n** English Subtitle(s) **\r\n\r\n[ SCREENS ]\r\n \nhttp://extraimago.com/image/wnIz \nhttp://extraimago.com/image/wnIU \nhttp://extraimago.com/image/wnIM \nhttp://extraimago.com/image/wnI9 \nhttp://extraimago.com/image/wnI3 \nhttp://extraimago.com/image/wnIb \nhttp://extraimago.com/image/wnIh \nhttp://extraimago.com/image/wnId \nhttp://extraimago.com/image/wnII \nhttp://extraimago.com/image/wnIl \nhttp://extraimago.com/image/wnIi\r\n\r\n[ Info ]\r\nSource : DDR Blu-ray BD50\r\nFormat : Matroska\r\nFile size : 1.06 GiB\r\nDuration : 2h 11mn\r\nOverall bit rate : 1 153 Kbps\r\n\r\nVideo\r\nFormat : AVC\r\nFormat/Info : Advanced Video Codec\r\nFormat profile :   \r\nFormat settings, CABAC : Yes\r\normat profile :   \r\nFormat settings, CABAC : Yes\r\nFormat settings, ReFrames : 12 frames\r\nCodec ID : V_MPEG4/ISO/AVC\r\nDuration : 2h 11mn\r\nBit rate : 956 Kbps\r\nWidth : 1 280 pixels\r\nHeight : 532 pixels\r\nDisplay aspect ratio : 2.40:1\r\nFrame rate mode : Constant\r\nFrame rate : 24.000 fps\r\ncolor space : YUV\r\nChroma subsampling : 4:2:0\r\nBit depth : 8 bits\r\nScan type : Progressive\r\nBits/(Pixel*Frame) : 0.059\r\nStream size : 903 MiB (83%)\r\nDefault : Yes\r\nForced : No\r\ncolor range : Limited\r\ncolor primaries : BT.709\r\n\r\nAudio\r\nFormat : AAC\r\nFormat/Info : Advanced Audio Codec\r\nFormat profile : LC\r\nCodec ID : A_AAC\r\nDuration : 2h 11mn\r\nBit rate : 192 Kbps\r\nChannel(s) : 6 channels\r\nChannel positions : Front: L C R, Side: L R, LFE\r\nSampling rate : 48.0 KHz\r\nFrame rate : 46.875 fps (1024 spf)\r\nCompression mode : Lossy\r\nDelay relative to video : 19ms\r\nStream size : 181 MiB (17%)\r\nLanguage : Hindi\r\nDefault : Yes\r\nForced : No\r\n\r\nText\r\nFormat : VobSub\r\nMuxing mode : zlib\r\nCodec ID : S_VOBSUB\r\nCodec ID/Info : Picture based subtitle format used on DVDs\r\nDuration : 2h 4mn\r\nBit rate : 2 798 bps\r\nCount of elements : 1579\r\nStream size : 2.49 MiB (0%)\r\nLanguage : English\r\nDefault : Yes\r\nForced : No\r\n\r\nChapters = YES","torrent":{"xt":"urn:btih:ce9f623881d619e9bf2f27a70d36f00541e2ac0a","amp;dn":"Sarbjit+%282016%29+720p+Blu-ray+x264+AAC+5.1+Hindi+ESub+-DDR","amp;tr":["udp%3A%2F%2Ftracker.leechers-paradise.org%3A6969","udp%3A%2F%2Fzer0day.ch%3A1337","udp%3A%2F%2Fopen.demonii.com%3A1337","udp%3A%2F%2Ftracker.coppersurfer.tk%3A6969","udp%3A%2F%2Fexodus.desync.com%3A6969"],"infoHash":"ce9f623881d619e9bf2f27a70d36f00541e2ac0a","infoHashBuffer":{"type":"Buffer","data":[206,159,98,56,129,214,25,233,191,47,39,167,13,54,240,5,65,226,172,10]},"announce":[],"urlList":[]}}